#!OML:ASF H:\Terrain\Walking\May29\JustinRory\Justin.ASF
:FULLY-SPECIFIED
:DEGREES
1489
root 8.15373 17.5484 -15.7827 -3.21357 -5.80102 -0.930743
lowerback 4.85785 -0.208208 -2.23416
upperback -0.621758 -0.309411 3.14597
thorax -3.34085 -0.0830263 4.54206
lowerneck -11.2338 -3.95537 -11.6019
upperneck 12.6821 -4.95541 10.6143
head 6.24265 -2.18467 4.87953
rclavicle -1.57537e-014 -3.97569e-015
rhumerus -9.81657 38.7822 -100.706
rradius 98.3495
rwrist -24.4023
rhand -26.2951 31.7472
rfingers 7.12502
rthumb 0.260739 1.76764
lclavicle -1.57537e-014 -3.97569e-015
lhumerus 0.53997 -34.6083 95.2299
lradius 92.3914
lwrist 15.7697
lhand -19.4722 43.4206
lfingers 7.12502
lthumb 6.8493 73.2898
rfemur 1.01123 -0.565488 16.845
rtibia 16.3183
rfoot -10.8144 -10.3143
rtoes -3.92898
lfemur 0.352289 1.75981 -17.5115
ltibia 21.2863
lfoot -15.355 6.10019
ltoes -10.9971
1490
root 8.14483 17.5467 -15.7886 -3.14307 -5.91088 -1.49551
lowerback 4.93102 -0.207629 -1.70538
upperback -0.60542 -0.272915 3.28278
thorax -3.36998 -0.073339 4.38239
lowerneck -11.3442 -3.977 -11.526
upperneck 12.7468 -4.99694 10.6503
head 6.28598 -2.1954 4.87458
rclavicle -5.56597e-015 5.56597e-015
rhumerus -9.58972 40.4607 -101.179
rradius 97.862
rwrist -23.6822
rhand -34.2702 37.2793
rfingers 7.12502
rthumb -7.44037 7.43018
lclavicle -5.56597e-015 5.56597e-015
lhumerus 0.448547 -36.0371 95.751
lradius 92.0113
lwrist 16.051
lhand -26.18 47.6687
lfingers 7.12502
lthumb 0.371892 77.6481
rfemur 1.00244 -0.440788 17.547
rtibia 16.2521
rfoot -10.8091 -10.4239
rtoes -3.8298
lfemur 0.196485 1.95069 -16.7988
ltibia 21.5561
lfoot -15.4873 5.90117
ltoes -10.9028
1491
root 8.13685 17.5543 -15.7905 -3.01591 -6.04702 -1.76082
lowerback 4.94088 -0.171131 -1.45855
upperback -0.690433 -0.206127 3.32181
thorax -3.47008 -0.0416141 4.27886
lowerneck -11.3004 -4.01578 -11.3239
upperneck 12.8312 -5.08149 10.5517
head 6.30706 -2.23501 4.80107
rclavicle 1.87603e-014 -9.54166e-015
rhumerus -9.70886 40.0111 -101.683
rradius 98.2595
rwrist -25.3706
rhand -35.3492 39.703
rfingers 7.12502
rthumb -8.48182 9.89337
lclavicle 1.87603e-014 -9.54166e-015
lhumerus -0.0126071 -34.0066 96.7145
lradius 92.0447
lwrist 16.3265
lhand -21.6571 46.5344
lfingers 7.12502
lthumb 4.7399 76.4614
rfemur 0.890467 -0.240881 17.9148
rtibia 16.1896
rfoot -10.7397 -10.5737
rtoes -3.55966
lfemur -0.0236572 1.83133 -16.4558
ltibia 21.7794
lfoot -15.8309 5.83179
ltoes -9.36122
1492
root 8.13199 17.5606 -15.7865 -2.96721 -6.21891 -1.63538
lowerback 4.87156 -0.136607 -1.67956
upperback -0.64928 -0.174101 3.33003
thorax -3.39072 -0.0231212 4.40944
lowerneck -11.5501 -4.04746 -10.9213
upperneck 12.9285 -5.10661 10.1002
head 6.3618 -2.25381 4.58033
rclavicle -7.47927e-015 1.59028e-015
rhumerus -10.1499 39.1819 -102.13
rradius 98.6212
rwrist -24.7838
rhand -36.024 39.4192
rfingers 7.12502
rthumb -9.13294 9.63691
lclavicle -7.47927e-015 1.59028e-015
lhumerus -0.902936 -32.3476 97.6157
lradius 92.5594
lwrist 17.709
lhand -21.0776 44.5257
lfingers 7.12502
lthumb 5.2994 74.4394
rfemur 0.823967 -0.0831863 17.8145
rtibia 16.1535
rfoot -10.6329 -10.568
rtoes -3.43535
lfemur -0.123388 1.56786 -16.604
ltibia 21.9473
lfoot -16.206 6.06857
ltoes -7.76148
1493
root 8.12765 17.5583 -15.7886 -2.9788 -6.4363 -1.37213
lowerback 4.82134 -0.0585488 -2.03071
upperback -0.491357 -0.0945543 3.29656
thorax -3.20579 0.0171468 4.56607
lowerneck -11.9331 -4.13426 -10.7924
upperneck 12.9028 -5.18755 9.96816
head 6.42241 -2.28591 4.50278
rclavicle 6.60959e-015 -2.70347e-014
rhumerus -10.6161 38.1655 -102.362
rradius 99.02
rwrist -23.5099
rhand -35.4462 37.4221
rfingers 7.12502
rthumb -8.57538 7.61621
lclavicle 6.60959e-015 -2.70347e-014
lhumerus -1.87467 -30.8535 98.1348
lradius 93.4479
lwrist 18.7562
lhand -20.3268 42.6098
lfingers 7.12502
lthumb 6.02427 72.5041
rfemur 0.768222 0.280792 17.5969
rtibia 16.1355
rfoot -10.5541 -10.73
rtoes -3.33959
lfemur -0.150265 1.4602 -16.9108
ltibia 22.0484
lfoot -16.368 6.39452
ltoes -7.41149
1494
root 8.12201 17.5578 -15.7856 -2.92366 -6.42286 -1.36164
lowerback 4.69259 -0.0522404 -2.01061
upperback -0.404409 -0.0870625 3.25539
thorax -3.04396 0.0158633 4.50885
lowerneck -12.0151 -4.25105 -11.0519
upperneck 12.8476 -5.35051 10.3614
head 6.45539 -2.34543 4.65827
rclavicle -6.60959e-015 1.98785e-014
rhumerus -11.1243 37.0122 -102.482
rradius 99.449
rwrist -22.7784
rhand -32.808 34.8997
rfingers 7.12502
rthumb -6.02889 5.00548
lclavicle -6.60959e-015 1.98785e-014
lhumerus -2.55191 -29.824 98.3465
lradius 94.1247
lwrist 19.7302
lhand -19.6255 41.8498
lfingers 7.12502
lthumb 6.70131 71.7238
rfemur 0.694937 0.41759 17.6301
rtibia 16.1631
rfoot -10.6583 -10.9264
rtoes -3.25491
lfemur -0.23698 1.32227 -16.921
ltibia 22.1363
lfoot -16.4404 6.46439
ltoes -6.77842
1495
root 8.11653 17.5558 -15.7688 -2.9362 -6.13089 -1.63395
lowerback 4.50702 -0.205405 -1.72382
upperback -0.282171 -0.27527 3.33589
thorax -2.79634 -0.0883568 4.43984
lowerneck -12.0056 -4.27282 -11.2172
upperneck 12.7184 -5.37224 10.5544
head 6.42542 -2.34983 4.74634
rclavicle 1.10325e-014 4.92986e-014
rhumerus -11.2979 36.1895 -102.292
rradius 99.756
rwrist -22.852
rhand -30.1127 33.2815
rfingers 7.12502
rthumb -3.42632 3.32929
lclavicle 1.10325e-014 4.92986e-014
lhumerus -2.36701 -28.8925 98.4269
lradius 94.088
lwrist 20.1593
lhand -19.2433 42.2547
lfingers 7.12502
lthumb 7.07033 72.1166
rfemur 0.825626 -0.00539169 17.872
rtibia 16.2341
rfoot -10.8866 -10.7461
rtoes -2.4478
lfemur -0.210145 1.16485 -16.6121
ltibia 22.2326
lfoot -16.5049 6.28057
ltoes -6.57201
1496
root 8.11208 17.5504 -15.7541 -3.00312 -5.92985 -1.80867
lowerback 4.43886 -0.304324 -1.5279
upperback -0.173663 -0.39756 3.3988
thorax -2.63575 -0.156147 4.40025
lowerneck -12.116 -4.26946 -11.1867
upperneck 12.6388 -5.34405 10.4795
head 6.4133 -2.33717 4.71721
rclavicle 5.61567e-015 -7.95139e-016
rhumerus -11.3093 35.4405 -101.914
rradius 100.019
rwrist -23.6976
rhand -27.3924 32.9025
rfingers 7.12502
rthumb -0.79912 2.92423
lclavicle 5.61567e-015 -7.95139e-016
lhumerus -1.9297 -28.3032 98.4149
lradius 93.7067
lwrist 19.5261
lhand -19.3729 42.8508
lfingers 7.12502
lthumb 6.94517 72.7168
rfemur 0.996189 -0.638136 17.9693
rtibia 16.2639
rfoot -10.918 -10.2574
rtoes -1.91236
lfemur -0.143716 1.12183 -16.4055
ltibia 22.3399
lfoot -16.6008 6.10833
ltoes -7.08151
1497
root 8.10475 17.5447 -15.7495 -3.03497 -5.92814 -1.69723
lowerback 4.55951 -0.273172 -1.58527
upperback -0.184678 -0.359957 3.34591
thorax -2.71818 -0.135353 4.37678
lowerneck -12.314 -4.30476 -11.3983
upperneck 12.7794 -5.3837 10.7398
head 6.5099 -2.34128 4.8349
rclavicle -1.54058e-015 -2.46493e-014
rhumerus -11.1927 34.5756 -101.373
rradius 100.272
rwrist -25.1683
rhand -24.9246 33.9514
rfingers 7.12502
rthumb 1.58443 3.97757
lclavicle -1.54058e-015 -2.46493e-014
lhumerus -1.79007 -28.1855 98.121
lradius 93.4793
lwrist 18.4679
lhand -19.7338 43.3728
lfingers 7.12502
lthumb 6.59679 73.2501
rfemur 0.993573 -0.854446 17.8389
rtibia 16.3302
rfoot -10.8786 -10.0622
rtoes -2.41473
lfemur -0.14444 1.16813 -16.4981
ltibia 22.4213
lfoot -16.6563 6.07655
ltoes -7.40699
1498
root 8.0926 17.5389 -15.7466 -3.12882 -5.94074 -1.58237
lowerback 4.74484 -0.271214 -1.74373
upperback -0.165669 -0.36709 3.32358
thorax -2.80133 -0.135651 4.44625
lowerneck -12.4275 -4.30511 -11.559
upperneck 12.843 -5.37447 10.9155
head 6.55807 -2.32807 4.92129
rclavicle -7.70291e-016 -1.66979e-014
rhumerus -10.7999 34.0564 -100.61
rradius 100.547
rwrist -26.3438
rhand -23.198 33.7237
rfingers 7.12502
rthumb 3.25187 3.7687
lclavicle -7.70291e-016 -1.66979e-014
lhumerus -1.66742 -28.0366 97.3935
lradius 93.5051
lwrist 17.7759
lhand -19.45 44.0298
lfingers 7.12502
lthumb 6.8708 73.8983
rfemur 0.978158 -0.73983 17.7764
rtibia 16.5639
rfoot -10.9951 -10.1812
rtoes -2.98882
lfemur -0.0207037 1.15683 -16.5754
ltibia 22.3764
lfoot -16.666 6.1067
ltoes -7.52327
1499
root 8.08115 17.5306 -15.7406 -3.15077 -5.94533 -1.68295
lowerback 4.73644 -0.28688 -1.65048
upperback -0.124163 -0.383227 3.33802
thorax -2.75272 -0.146405 4.40884
lowerneck -12.3096 -4.32914 -11.3976
upperneck 12.733 -5.40659 10.6915
head 6.49581 -2.3561 4.81569
rclavicle 3.10601e-015 1.74931e-014
rhumerus -10.5398 33.8336 -99.8195
rradius 100.786
rwrist -26.9481
rhand -21.4877 31.6539
rfingers 7.12502
rthumb 4.9034 1.73064
lclavicle 3.10601e-015 1.74931e-014
lhumerus -1.57236 -27.7297 96.5905
lradius 93.5953
lwrist 17.1693
lhand -18.6528 44.0509
lfingers 7.12502
lthumb 7.64033 73.8929
rfemur 0.920555 -0.620457 17.9499
rtibia 16.7947
rfoot -11.1358 -10.3027
rtoes -3.5543
lfemur 0.117816 1.27954 -16.4324
ltibia 22.2218
lfoot -16.5837 6.28178
ltoes -9.67503
